<?xml version="1.0" encoding="iso-8859-1"?>
<!-- Generator: Adobe Illustrator 16.0.0, SVG Export Plug-In . SVG Version: 6.00 Build 0)  -->
<!DOCTYPE svg PUBLIC "-//W3C//DTD SVG 1.1//EN" "http://www.w3.org/Graphics/SVG/1.1/DTD/svg11.dtd">
<svg version="1.1" id="Capa_1" xmlns="http://www.w3.org/2000/svg" xmlns:xlink="http://www.w3.org/1999/xlink" x="0px" y="0px"
	 width="612.008px" height="612.008px" viewBox="0 0 612.008 612.008" style="enable-background:new 0 0 612.008 612.008;"
	 xml:space="preserve">
<g>
	<path d="M553.135,359.811L553.135,359.811c-0.056,0-0.812,0-0.869,0l-493.84-6.338c-15.229-0.195-29.617-5.301-40.499-14.388
		c-11.584-9.648-18.118-23.139-17.922-37.022c0.393-27.962,26.223-49.865,58.841-49.865l494.738,6.338
		c15.229,0.195,29.617,5.301,40.499,14.388c11.555,9.648,18.118,23.138,17.922,36.993
		C611.611,337.907,585.753,359.811,553.135,359.811z M59.351,280.243c-17.052,0-31.131,10.181-31.3,22.213
		c-0.112,7.376,4.852,12.621,7.825,15.089c5.862,4.908,14.22,7.769,22.886,7.881l493.813,6.338l0.533,14.023v-14.023
		c16.827,0,30.654-9.956,30.822-22.213c0.112-7.376-4.852-12.621-7.825-15.089c-5.861-4.908-14.22-7.769-22.913-7.881
		L59.351,280.243L59.351,280.243z"/>
</g>
<g>
</g>
<g>
</g>
<g>
</g>
<g>
</g>
<g>
</g>
<g>
</g>
<g>
</g>
<g>
</g>
<g>
</g>
<g>
</g>
<g>
</g>
<g>
</g>
<g>
</g>
<g>
</g>
<g>
</g>
</svg>
